<?xml version="1.0" encoding="UTF-8"?>
<svg xmlns="http://www.w3.org/2000/svg" id="Livello_1" data-name="Livello 1" width="129.17" height="93.397" viewBox="0 0 129.17 93.397">
  <g id="Raggruppa_2" data-name="Raggruppa 2">
    <path id="Tracciato_13" data-name="Tracciato 13" d="M64.594,92.7c35.67-4.408,64.582-28.572,64.576-53.983S100.245-3.717,64.576.692,0,29.27,0,54.674,28.925,97.108,64.594,92.7" transform="translate(0 0.003)" fill="#414b54"></path>
    <path id="Tracciato_14" data-name="Tracciato 14" d="M178.5,47.989a2.075,2.075,0,0,1-.838-.17,2.127,2.127,0,0,1-.68-.46,2.2,2.2,0,0,1-.46-.68,2.075,2.075,0,0,1-.17-.838,2.045,2.045,0,0,1,.17-.831,2.162,2.162,0,0,1,1.14-1.14,2.075,2.075,0,0,1,.838-.17,2.045,2.045,0,0,1,.831.17,2.127,2.127,0,0,1,.68.46,2.2,2.2,0,0,1,.46.68,2.067,2.067,0,0,1,.17.831,2.1,2.1,0,0,1-.17.838,2.127,2.127,0,0,1-.46.68,2.2,2.2,0,0,1-.68.46,2.067,2.067,0,0,1-.831.17m0-.283a1.836,1.836,0,0,0,.724-.145,1.646,1.646,0,0,0,.567-.4,1.85,1.85,0,0,0,.372-.592,2.018,2.018,0,0,0,.139-.737,1.944,1.944,0,0,0-.51-1.322,1.835,1.835,0,0,0-.567-.4,1.883,1.883,0,0,0-1.448,0,1.671,1.671,0,0,0-.573.4,1.8,1.8,0,0,0-.378.592,2.009,2.009,0,0,0-.139.731,1.917,1.917,0,0,0,.139.737,1.763,1.763,0,0,0,.378.592,1.671,1.671,0,0,0,.573.4,1.836,1.836,0,0,0,.724.145m1.071-.668h-.353l-.686-1.108h-.542v1.108h-.3v-2.4h1.052a.982.982,0,0,1,.661.17.6.6,0,0,1,.189.466.719.719,0,0,1-.057.3.5.5,0,0,1-.157.2.763.763,0,0,1-.239.113,1.456,1.456,0,0,1-.3.044l.724,1.108ZM178.441,45.7h.271a1.287,1.287,0,0,0,.277-.031.354.354,0,0,0,.208-.126.387.387,0,0,0,.082-.271.4.4,0,0,0-.057-.227.379.379,0,0,0-.139-.126.8.8,0,0,0-.2-.057c-.069-.006-.145-.013-.214-.013h-.686v.85h.447Z" transform="translate(-65.292 -16.177)" fill="#fff"></path>
    <path id="Tracciato_15" data-name="Tracciato 15" d="M32.307,96.652h-2.1V95.84H35.3v.812h-2.1v6.2h-.9Z" transform="translate(-11.185 -35.482)" fill="#fff"></path>
    <path id="Tracciato_16" data-name="Tracciato 16" d="M45.2,95.84h4.125v.812H46.107v2.2h2.985v.812H46.107v2.374h3.231v.812H45.2Z" transform="translate(-16.735 -35.482)" fill="#fff"></path>
    <path id="Tracciato_17" data-name="Tracciato 17" d="M60.027,100.781c0,.976.378,1.3,1.524,1.3a10.835,10.835,0,0,0,1.644-.145l.094.781a9.171,9.171,0,0,1-1.77.189c-1.713,0-2.4-.737-2.4-2.066V97.746c0-1.329.686-2.066,2.4-2.066a9.171,9.171,0,0,1,1.77.189l-.094.781a10.768,10.768,0,0,0-1.644-.145c-1.146,0-1.524.315-1.524,1.3v2.991Z" transform="translate(-21.889 -35.423)" fill="#fff"></path>
    <path id="Tracciato_18" data-name="Tracciato 18" d="M77.145,102.849v-3.18h-3.1v3.18h-.9V95.84h.9v3.023h3.1V95.84h.907v7.009Z" transform="translate(-27.079 -35.482)" fill="#fff"></path>
    <path id="Tracciato_19" data-name="Tracciato 19" d="M89.793,96.885v5.964H88.93V95.84h1.241l3.048,6v-6h.863v7.009H92.841Z" transform="translate(-32.926 -35.482)" fill="#fff"></path>
    <path id="Tracciato_20" data-name="Tracciato 20" d="M109.916,100.765c0,1.165-.724,2.129-2.538,2.129s-2.538-.957-2.538-2.129V97.8c0-1.165.724-2.129,2.538-2.129s2.538.957,2.538,2.129Zm-4.169-.019c0,.863.529,1.348,1.631,1.348s1.631-.485,1.631-1.348V97.817c0-.863-.529-1.348-1.631-1.348s-1.631.485-1.631,1.348Z" transform="translate(-38.816 -35.419)" fill="#fff"></path>
    <path id="Tracciato_21" data-name="Tracciato 21" d="M121.547,102.037h3.042v.812H120.64V95.84h.907Z" transform="translate(-44.666 -35.482)" fill="#fff"></path>
    <path id="Tracciato_22" data-name="Tracciato 22" d="M138.966,100.765c0,1.165-.724,2.129-2.538,2.129s-2.538-.957-2.538-2.129V97.8c0-1.165.724-2.129,2.538-2.129s2.538.957,2.538,2.129Zm-4.169-.019c0,.863.529,1.348,1.631,1.348s1.631-.485,1.631-1.348V97.817c0-.863-.529-1.348-1.631-1.348s-1.631.485-1.631,1.348Z" transform="translate(-49.572 -35.419)" fill="#fff"></path>
    <path id="Tracciato_23" data-name="Tracciato 23" d="M150.337,100.777c0,.894.264,1.3,1.461,1.3a7.031,7.031,0,0,0,1.316-.126v-2.38h.875v3.023a8.2,8.2,0,0,1-2.223.3c-1.789,0-2.336-.768-2.336-2.066V97.742c0-1.423.705-2.072,2.45-2.072a9.267,9.267,0,0,1,1.946.22l-.107.781a11.458,11.458,0,0,0-1.883-.176c-1.159,0-1.505.346-1.505,1.3v2.991Z" transform="translate(-55.325 -35.419)" fill="#fff"></path>
    <path id="Tracciato_24" data-name="Tracciato 24" d="M167.84,95.84h.945l-2.324,4.893v2.116h-.907v-2.116L163.23,95.84h.951l1.826,3.917Z" transform="translate(-60.434 -35.482)" fill="#fff"></path>
    <path id="Tracciato_25" data-name="Tracciato 25" d="M30.735,43.43h4.3V59.168a8.046,8.046,0,0,0,.113,1.455,3.574,3.574,0,0,0,3.357,2.96,13.522,13.522,0,0,0,1.744.113c3.5.013,6.984,0,10.479.019a.752.752,0,0,0,.838-.56c2.192-5.586,4.44-11.153,6.606-16.745a4.829,4.829,0,0,1,4.761-3.4,14,14,0,0,1,1.99.094,4.3,4.3,0,0,1,3.659,2.954q1.833,4.818,3.678,9.635c.964,2.532,1.94,5.057,2.891,7.595a.531.531,0,0,0,.586.422C80.92,63.7,86.1,63.7,91.286,63.7a5.406,5.406,0,0,0,.781-.038,3.018,3.018,0,0,0,2.255-4.5,2.96,2.96,0,0,0-2.733-1.493c-2.015-.069-4.03-.006-6.039-.063a18.9,18.9,0,0,1-3.432-.3c-3.262-.7-5.044-2.922-5.151-6.348a10.638,10.638,0,0,1,.233-2.607c.6-2.777,2.506-4.219,5.189-4.729a11.964,11.964,0,0,1,2.273-.2q17.939-.019,35.871-.006h.5v4.314h-9.182V68h-4.383V47.731H84.762a6.938,6.938,0,0,0-1.354.113,2.864,2.864,0,0,0,.271,5.592,8.285,8.285,0,0,0,1.31.1c2.078.013,4.156-.006,6.241.013a9.789,9.789,0,0,1,4.075.825,5.834,5.834,0,0,1,3.514,4.471A9.941,9.941,0,0,1,98.761,63a6.093,6.093,0,0,1-5.088,4.761,14.389,14.389,0,0,1-2.853.246c-4.371.025-8.741.013-13.112.013-1.688,0-3.376-.013-5.063.006a.609.609,0,0,1-.668-.466q-3.552-9.427-7.123-18.842c-.076-.2-.145-.4-.233-.586a1.143,1.143,0,0,0-1.064-.724,1.208,1.208,0,0,0-1.215.649,7.5,7.5,0,0,0-.384.894q-3.675,9.3-7.343,18.6c-.1.258-.17.485-.554.485-5.1-.025-10.2,0-15.3-.069A10.356,10.356,0,0,1,35.8,67.43,6.929,6.929,0,0,1,30.829,61.2a13.186,13.186,0,0,1-.1-1.65q-.009-7.822,0-15.643c0-.145.013-.29.019-.472" transform="translate(-11.376 -15.92)" fill="#fff"></path>
  </g>
</svg>
